<?xml version="1.0" encoding="UTF-8" standalone="no"?>
<!DOCTYPE svg PUBLIC "-//W3C//DTD SVG 1.1//EN" "http://www.w3.org/Graphics/SVG/1.1/DTD/svg11.dtd">
<svg width="100%" height="100%" viewBox="0 0 500 300" version="1.1" xmlns="http://www.w3.org/2000/svg" xmlns:xlink="http://www.w3.org/1999/xlink" xml:space="preserve" xmlns:serif="http://www.serif.com/" style="fill-rule:evenodd;clip-rule:evenodd;">
    <g transform="matrix(25.7133,0,0,29.2601,-2711.12,-2463.36)">
        <g transform="matrix(1,0,0,1,0.97226,0)">
            <path d="M110.047,92.336L113.655,92.336L113.655,94.033L108.132,94.033L108.132,84.76L110.047,84.76L110.047,92.336ZM108.521,93.691L108.521,85.101L109.658,85.101L109.658,92.678L113.266,92.678L113.266,93.691L108.521,93.691Z" style="fill:rgb(109,0,0);"/>
        </g>
        <g transform="matrix(1,0,0,1,0.155562,0)">
            <path d="M116.826,90.131L116.826,94.033L114.912,94.033L114.912,84.76L121.057,84.76L121.057,86.457L116.826,86.457L116.826,88.434L119.302,88.434L119.302,90.131L116.826,90.131ZM115.301,93.691L115.301,85.101L120.668,85.101L120.668,86.115L116.437,86.115L116.437,88.775L118.913,88.775L118.913,89.789L116.437,89.789L116.437,93.691L115.301,93.691Z" style="fill:rgb(107,0,0);"/>
        </g>
    </g>
    <g id="Selection" transform="matrix(1,0,0,1,10.0203,45.1287)">
        <path d="M466.521,32.157C463.689,33.564 461.994,36.895 460.079,39.357C456.777,43.595 453.173,47.651 449.242,51.313C438.755,61.08 426.967,67.046 413.725,72.085L407.965,74.183L400.766,76.078C397.622,77.058 394.594,78.162 392.693,74.384C391.714,72.445 393.739,64.9 394.239,62.395L396.307,50.876L397.008,42.237L397.886,34.077L397.886,26.878L398.366,19.199C398.357,17.533 398.352,17.019 398.083,15.359C397.949,14.524 397.757,13.285 397.406,12.532C396.134,9.815 392.482,10.098 390.207,11.255C387.774,12.493 386.478,14.869 383.488,15.248C381.083,15.56 379.422,14.221 377.248,13.545C374.714,12.753 370.778,12.306 368.129,12.561C366.19,12.743 363.185,13.175 361.409,13.885C358.424,15.08 355.53,17.456 353.25,19.683C346.689,26.096 342.581,33.957 342.072,43.196L342.072,47.996C341.885,52.009 338.347,54.955 335.492,57.456C334.488,58.334 332.381,60.201 331.172,60.581C327.932,61.603 326.425,58.334 326.372,55.675L326.372,47.516L327.793,34.077C327.563,28.159 324.889,25.649 319.173,28.5C314.628,30.766 307.006,38.406 301.894,39.563C294.114,41.325 298.031,28.831 290.855,31.126C287.356,32.249 283.421,37.039 281.059,39.837C273.298,49.033 273.802,49.383 268.009,59.035L261.803,69.042C259.255,71.831 255.905,70.367 255.818,65.755L257.215,52.316L257.215,48.956C256.778,45.865 255.089,44.507 251.979,45.428C248.245,46.532 245.845,50.655 239.98,49.143C235.382,47.958 234.897,45.923 227.021,45.615C224.424,45.515 219.797,46.259 217.422,47.286C208.173,51.298 199.783,63.724 199.663,73.914L199.663,80.633L200.124,86.873C200.177,88.289 200.143,89.897 199.514,91.192C197.623,95.075 189.694,101.041 185.264,101.252C180.201,101.497 173.923,98.469 173.923,92.632C173.923,90.204 176.169,87.041 177.383,84.953L185.595,70.074C189.392,63.057 194.532,51.903 196.087,44.156L197.328,36.82L197.743,28.798C197.791,24.622 196.783,15.781 194.076,12.58C192.579,10.804 189.891,10.252 187.664,10.122C181.957,9.791 177.964,12.666 174.364,16.799C167.506,24.67 160.513,39.285 157.849,49.436L156.332,57.595C155.819,60.657 155.065,63.585 155.027,66.714L155.027,81.593C155.032,84.291 155.324,87.079 155.713,89.753C156.659,96.285 157.715,100.672 151.667,105.337C150.198,106.465 149.066,106.921 147.348,107.511C145.591,108.111 143.436,108.793 141.588,108.908C139.111,109.057 137.268,108.538 135.349,106.925C127.304,100.158 132.046,89.292 134.974,81.113C135.881,78.569 138.07,74.6 136.572,72.066C135.161,69.676 133.126,71.303 131.509,72.407C128.74,74.298 125.413,76.198 122.495,73.324C119.208,70.079 121.531,63.667 116.145,61.44C115.152,61.027 113.842,60.883 112.8,61.161C110.352,61.819 109.757,63.969 110.002,66.235C110.429,70.233 113.246,73.679 113.232,77.754C113.227,80.12 111.955,82.76 111.063,84.953C108.922,90.189 104.161,99.313 99.352,102.284C94.72,105.145 92.291,99.716 89.671,96.995C88.485,95.766 86.897,94.591 85.433,93.717C73.203,86.417 57.686,95.325 57.134,109.431C56.99,113.055 58.161,116.947 60.115,119.99C61.545,122.222 64.3,124.252 62.788,127.18C60.619,131.399 51.831,130.103 47.996,129.268C40.797,127.708 34.125,123.081 32.124,115.67C31.442,113.16 31.644,106.575 31.677,103.671C31.749,97.528 35.392,89.685 39.856,85.514C42.26,83.268 45.126,81.574 47.996,80.009C52.455,77.576 55.33,76.323 60.475,76.314C64.655,76.309 68.807,76.491 72.954,75.896C74.307,75.699 76.942,75.431 77.398,73.832C78.152,71.193 71.144,71.37 69.594,71.169C67.631,70.914 64.607,70.737 62.875,69.858C58.723,67.751 57.221,62.899 57.12,58.555C56.789,43.979 75.219,39.755 83.023,45.495C85.558,47.358 85.97,48.98 86.805,51.836C87.314,53.588 87.9,56.026 89.8,56.751C93.199,58.051 95.277,53.559 95.464,50.876C95.598,49.023 95.214,47.358 94.686,45.596C93.986,43.268 93.131,41.238 91.514,39.376C87.933,35.244 79.832,32.033 74.394,31.721C69.589,31.447 61.968,34.437 58.075,37.168C51.293,41.929 47.372,49.738 48.687,58.075C49.777,64.996 53.266,67.084 51,70.535C49.666,72.57 47.694,72.906 45.596,73.727L36.477,77.874C27.89,82.169 22.117,86.182 16.443,94.072C13.093,98.728 11.591,102.135 11.519,107.991L11.519,113.271C11.591,119.356 13.271,122.788 16.635,127.669C19.074,131.207 20.153,132.575 23.518,135.305C41.492,149.896 67.708,143.335 84.953,131.01C89.632,127.665 94.384,121.439 97.59,116.63L110.016,95.512L114.965,85.433C116.707,82.438 120.139,79.563 123.287,82.625C124.069,83.383 124.717,84.343 124.914,85.433C125.265,87.382 123.599,91.212 122.894,93.112C121.636,96.486 118.372,105.711 118.171,108.951C117.897,113.391 120.556,118.291 124.789,119.803C126.834,120.537 128.423,120.494 130.549,120.47C136.481,120.403 143.805,117.11 148.787,114.029C150.947,112.69 155.752,109.234 157.907,108.817C161.17,108.188 165.96,111.754 169.426,112.771C173.169,113.87 179.745,112.69 183.344,111.293C187.472,109.7 193.688,104.473 196.764,101.272C198.713,99.246 201.401,95.454 203.983,94.499C206.325,93.64 208.072,94.931 210.222,95.632C212.694,96.438 213.923,96.467 216.462,96.472C222.197,96.482 225.734,95.949 230.86,93.093C233.183,91.797 238.53,87.866 240.46,87.391C244.266,86.455 247.121,90.54 251.499,87.905C253.687,86.585 256.519,82.337 258.079,80.153L268.777,64.795C270.14,62.75 273.778,56.693 275.981,56.079C279.744,55.037 280.531,59.841 280.075,62.395C278.78,69.589 272.396,76.587 279.816,79.405C280.69,79.736 281.76,79.971 282.696,79.913C287.428,79.63 288.652,75.733 290.001,71.994C292.228,65.803 295.266,53.578 299.173,48.961C301.914,45.721 308.479,41.973 310.649,47.996C311.431,49.892 310.735,53.194 310.649,55.195L309.247,64.315C308.916,68.673 310.495,72.416 314.853,73.808C316.13,74.216 317.364,74.418 318.693,74.135C320.478,73.751 323.785,71.72 325.412,70.708C330.044,67.823 332.804,66.043 336.931,62.313C338.448,60.945 341.669,57.398 343.171,56.645C346.756,54.855 348.983,57.773 351.81,59.189C354.128,60.345 357.411,60.528 359.97,60.47C363.896,60.374 368.45,58.699 371.969,56.991C373.783,56.107 376.711,54.029 378.688,54.408C381.246,54.893 382.091,57.202 382.028,59.515L379.849,71.514C379.403,73.544 378.894,76.486 377.805,78.234C377.027,79.481 375.674,80.83 374.368,81.516L359.97,85.255L310.054,96.894L228.461,114.61C196.524,121.396 165.312,128.653 135.349,142.001L128.629,145.284C117.715,150.467 107.679,155.368 100.523,165.586C96.981,170.645 94.605,178.814 97.057,184.784C98.814,189.056 103.839,193.318 107.991,195.195C115.238,198.473 121.905,198.223 129.589,198.223L149.747,198.223L161.266,196.822L166.546,196.822L184.304,194.125L190.064,193.299L223.181,185.922C258.453,177.105 287.558,166.748 320.133,150.424C332.919,144.017 345.84,137.475 357.57,129.244C364.592,124.314 373.077,116.328 378.136,109.431C381.376,105.01 385.167,96.674 389.247,94.058C390.908,92.992 395.29,91.61 397.406,90.804L412.285,84.819C430.413,77.139 445.517,68.385 457.118,51.836C460.934,46.393 461.135,45.596 463.79,39.837C465.316,36.525 466.329,36.011 466.521,32.157ZM370.049,22.717C376.192,22.04 380.517,24.608 380.608,31.197C380.627,32.844 380.699,35.935 380.353,37.437C378.933,43.633 373.826,49.239 367.169,48.937C362.408,48.721 359.552,44.848 359.571,40.317L359.571,33.597C360.55,28.443 365.028,23.921 370.049,22.717ZM187.184,25.164C193.779,24.248 192.469,30.66 192.464,35.037C192.454,41.598 189.987,49.921 187.909,56.155C186.215,61.243 184.583,65.865 181.905,70.554C180.489,73.036 177.523,79.4 174.705,79.995C172.353,80.489 171.082,78.973 170.894,76.794C170.587,73.256 171.528,69.714 172.027,66.235C173.558,55.603 175.19,44.934 179.654,35.037C181.285,31.423 183.292,26.71 187.184,25.164ZM230.38,53.42C236.975,52.824 241.338,57.379 241.309,63.835C241.439,65.62 241.506,68.913 241.309,70.554C240.1,76.366 234.969,82.779 228.941,83.835C222,85.054 217.028,80.96 217.018,73.914L217.018,67.194C218.214,60.513 223.757,54.711 230.38,53.42ZM72.954,99.515C76.501,99.102 80.148,98.982 83.014,101.435C85.38,103.46 86.321,105.898 86.383,108.951C86.522,115.488 81.809,119.774 75.354,119.491C72.387,119.361 69.345,118.152 67.602,115.651C66.378,113.89 66.263,112.45 66.234,110.391C66.172,104.962 66.94,101.137 72.954,99.515ZM363.809,99.976C367.222,99.678 369.823,101.502 368.124,105.111C367.054,107.391 361.99,112.503 359.97,114.302C346.991,125.865 336.01,132.272 320.613,139.951C308.499,145.989 295.833,151.067 283.176,155.833C253.649,166.954 233.116,172.886 202.063,178.67L181.905,182.241L177.585,182.591L171.345,183.825L167.026,183.825L157.427,185.303L151.667,185.303L140.628,186.704L126.709,186.704C124.641,186.68 123.916,186.56 121.91,186.042C120.787,185.754 119.591,185.423 118.569,184.866C117.076,184.05 116.299,183.1 115.934,181.425C114.83,176.409 121.291,171.653 124.789,169.152C135.953,161.175 159.826,151.989 173.265,147.506L199.663,138.915L245.259,127.948L288.936,117.758L337.891,106.129L363.809,99.976Z" style="fill:rgb(132,0,0);fill-rule:nonzero;stroke:black;stroke-width:0.48px;"/>
    </g>
</svg>
